<svg id="Layer_1" data-name="Layer 1" xmlns="http://www.w3.org/2000/svg" viewBox="0 0 123.29 114.95"><defs><style>.cls-1{fill:#bed5f7;}.cls-2{fill:#2e59ff;}.cls-3,.cls-4{fill:none;stroke:#f36f21;stroke-miterlimit:10;}.cls-3{stroke-width:7px;}.cls-4{stroke-width:5px;}</style></defs><title>Piller B</title><path class="cls-1" d="M80.56,72.28a12.89,12.89,0,0,1-24.31,8.61L49.47,61.71l.18-.06A29.78,29.78,0,0,0,74,54.42l.24-.08Z"/><path class="cls-2" d="M67,34.06l7.17,20.28-.24.08a29.78,29.78,0,0,1-24.32,7.23l-.18.06-6.75-19A12.74,12.74,0,0,1,42,38.4,12.89,12.89,0,0,1,67,34.06Z"/><path class="cls-3" d="M49.47,61.71l6.78,19.18a12.89,12.89,0,0,0,24.31-8.61L74.21,54.34,67,34.06A12.89,12.89,0,0,0,42,38.4a12.74,12.74,0,0,0,.73,4.27Z"/><path class="cls-4" d="M74,54.42a29.78,29.78,0,0,1-24.32,7.23"/></svg>