<svg id="Layer_1" data-name="Layer 1" xmlns="http://www.w3.org/2000/svg" viewBox="0 0 119.44 87.91"><defs><style>.cls-1{fill:#f36f21;stroke:#f36f21;stroke-miterlimit:10;}</style></defs><title>Solreflektion transp</title><polyline class="cls-1" points="25.34 19.27 3.44 13.26 33.93 19.27 10.74 20.56 44.66 27 16.75 27 42.09 33.87 27.91 33.87 51.1 39.45 91.9 39.45 59.38 29.15 105.64 30.01 71.72 21.42 113.8 16.27 86.31 10.9 117.04 8.54 81.16 4.52 119.38 0.5 0 0.5"/><polygon class="cls-1" points="31.56 53.36 87.71 51.88 65.78 57.19 31.56 53.36"/><polygon class="cls-1" points="32.56 67.26 71.86 67.26 37.78 71.89 32.56 67.26"/><polygon class="cls-1" points="77.22 81.63 56.23 81.63 84.88 86.99 77.22 81.63"/></svg>